<?xml version="1.0" encoding="utf-8"?>
<!-- Generator: Adobe Illustrator 19.2.1, SVG Export Plug-In . SVG Version: 6.00 Build 0)  -->
<svg version="1.1" id="レイヤー_1" xmlns="http://www.w3.org/2000/svg" xmlns:xlink="http://www.w3.org/1999/xlink" x="0px"
	 y="0px" viewBox="0 0 500 500" style="enable-background:new 0 0 500 500;" xml:space="preserve">
<style type="text/css">
	.st0{fill:none;stroke:#333333;stroke-width:20;stroke-miterlimit:10;}
	.st1{fill:#333333;}
	.st2{fill-rule:evenodd;clip-rule:evenodd;fill:#FFFFFF;}
</style>
<path class="st0" d="M483,59c0-4.7,0.8-7.7-3.8-7.7l-454-2.5c-4.6,0-6.2,5.4-6.2,10.2v294h464V59z"/>
<path class="st1" d="M9,344v15.6c0,7.7,4.5,14.4,10,14.4h463.5c5.5,0,10.5-6.7,10.5-14.4V344H9z"/>
<path class="st2" d="M251.9,351.1c1.2-1.6,2.8-1.6,2.8-1.6s0.2,1.5-0.9,2.9c-1.3,1.5-2.7,1.3-2.7,1.3S250.8,352.5,251.9,351.1z"/>
<path class="st2" d="M251.3,354.7c0.6,0,1.8-0.8,3.2-0.8c2.6,0,3.6,1.8,3.6,1.8s-2,1-2,3.4c0,2.7,2.4,3.7,2.4,3.7s-1.7,4.8-4,4.8
	c-1.1,0-1.9-0.7-3-0.7c-1.1,0-2.3,0.7-3,0.7c-2.1,0-4.8-4.6-4.8-8.2c0-3.6,2.3-5.5,4.4-5.5C249.5,354,250.5,354.7,251.3,354.7z"/>
<g>
	<path class="st1" d="M307.8,442.3H192.1c-2.4,0-2.6-3.5-0.2-3.8h0c7.4-1,13.6-6.1,15.9-13.2l16.2-50.1c0.4-1.2,1.6-2.1,2.9-2.1
		h47.5l15.9,62.5l19.1,3.4C310.5,440.2,309.6,442.3,307.8,442.3z"/>
	<path class="st1" d="M192.2,442.3h115.8c2.4,0,2.6-3.5,0.2-3.8h0c-7.4-1-13.6-6.1-15.9-13.2L276,375.2c-0.4-1.2-1.6-2.1-2.9-2.1
		h-47.5l-15.9,62.5l-19.1,3.4C189.5,440.2,190.4,442.3,192.2,442.3z"/>
</g>
</svg>
