<?xml version="1.0" encoding="utf-8"?>
<!-- Generator: Adobe Illustrator 19.2.1, SVG Export Plug-In . SVG Version: 6.00 Build 0)  -->
<svg version="1.1" id="レイヤー_1" xmlns="http://www.w3.org/2000/svg" xmlns:xlink="http://www.w3.org/1999/xlink" x="0px"
	 y="0px" viewBox="0 0 300 260" style="enable-background:new 0 0 300 260;" xml:space="preserve">
<style type="text/css">
	.st0{fill:#333333;}
</style>
<g id="Light">
	<g id="Mac">
		<path id="MacBook_2_" class="st0" d="M274,224.4V91c0-6.2-3.4-9.8-9.8-9.8H36.5c-6.4,0-9.8,3.3-9.8,9.8v133.4h-26
			c0.3,0.6,0.8,2.1,1.4,2.1c0,0,13.5,8.1,30.2,9.3c16.7,1.1,40,1.7,40,1.7c0,0,78.1,0,78.1,0h71.6c0,0,30.2-0.5,46.9-1.7
			c16.7-1.1,30-9.3,30-9.3c0.5,0,0.9-1.5,1.2-2.1C300,224.4,274,224.4,274,224.4z M39.7,94.3H261v130.1H39.7V94.3z"/>
	</g>
</g>
</svg>
