<?xml version="1.0" encoding="utf-8"?>
<!-- Generator: Adobe Illustrator 19.2.1, SVG Export Plug-In . SVG Version: 6.00 Build 0)  -->
<svg version="1.1" id="レイヤー_1" xmlns="http://www.w3.org/2000/svg" xmlns:xlink="http://www.w3.org/1999/xlink" x="0px"
	 y="0px" viewBox="0 0 210 320" style="enable-background:new 0 0 210 320;" xml:space="preserve">
<style type="text/css">
	.st0{fill:#333333;}
	.st1{fill:#333333;stroke:#FFFFFF;stroke-width:3;stroke-miterlimit:10;}
	.st2{fill-rule:evenodd;clip-rule:evenodd;fill:#FFFFFF;}
</style>
<path class="st0" d="M119.2,320H26.7c-9.4,0-17-7.6-17-17V147c0-9.4,7.6-17,17-17h92.5c9.4,0,17,7.6,17,17v156
	C136.2,312.4,128.6,320,119.2,320z"/>
<path class="st1" d="M86.4,296.2H59.5c-3.9,0-7-3.1-7-7v-90.7c0-3.3,2.7-6,6-6h27.9c3.9,0,7,3.1,7,7v89.7
	C93.4,293.1,90.3,296.2,86.4,296.2z"/>
<g>
	<path class="st2" d="M73.7,151.9c1.2-1.6,2.8-1.6,2.8-1.6s0.2,1.5-0.9,2.9c-1.3,1.5-2.7,1.3-2.7,1.3S72.7,153.3,73.7,151.9z"/>
	<path class="st2" d="M73.1,155.5c0.6,0,1.8-0.8,3.2-0.8c2.6,0,3.6,1.8,3.6,1.8s-2,1-2,3.4c0,2.7,2.4,3.7,2.4,3.7s-1.7,4.8-4,4.8
		c-1.1,0-1.9-0.7-3-0.7c-1.1,0-2.3,0.7-3,0.7c-2.1,0-4.8-4.6-4.8-8.2c0-3.6,2.3-5.5,4.4-5.5C71.3,154.7,72.4,155.5,73.1,155.5z"/>
</g>
</svg>
